<svg xmlns="http://www.w3.org/2000/svg" class="railroad" width="1164" height="1564" viewBox="0 0 1164 1564"><style>svg.railroad{background:#fff;font-family:monospace;font-size:13px}.rr-line{stroke:#334;stroke-width:2;fill:none}.rr-cap{fill:#334}.rr-term{fill:#e8f0ff;stroke:#334;stroke-width:2}.rr-nonterm{fill:#fff7e8;stroke:#334;stroke-width:2}.rr-label{fill:#111;text-anchor:middle;dominant-baseline:middle}.rr-comment{fill:#666;font-style:italic;text-anchor:middle;dominant-baseline:middle}.rr-title{fill:#113;font-weight:bold;font-size:15px}.rr-legend{fill:#333;font-size:12px}.rr-legend-tok{fill:#113;font-weight:bold}a:hover .rr-nonterm{fill:#ffe6b3;cursor:pointer}</style><g><g id="toml"><text class="rr-title" x="16" y="31">toml</text><circle class="rr-cap" cx="46" cy="42" r="3"/><path class="rr-line" d="M46 42V56"/><a href="#table"><rect class="rr-nonterm" x="16" y="56" width="60" height="26" rx="4" ry="4"/><text class="rr-label" x="46" y="69">table</text></a><path class="rr-line" d="M46 82V96"/><circle class="rr-cap" cx="46" cy="96" r="3"/></g><g id="val"><text class="rr-title" x="16" y="145">val</text><circle class="rr-cap" cx="112" cy="156" r="3"/><path class="rr-line" d="M112 156V170"/><path class="rr-line" d="M112 170V188"/><path class="rr-line" d="M38 188H186"/><path class="rr-line" d="M38 250H186"/><path class="rr-line" d="M112 250V268"/><path class="rr-line" d="M38 188V206"/><a href="#map"><rect class="rr-nonterm" x="16" y="206" width="44" height="26" rx="4" ry="4"/><text class="rr-label" x="38" y="219">map</text></a><path class="rr-line" d="M38 232V250"/><path class="rr-line" d="M112 188V206"/><a href="#list"><rect class="rr-nonterm" x="86" y="206" width="52" height="26" rx="4" ry="4"/><text class="rr-label" x="112" y="219">list</text></a><path class="rr-line" d="M112 232V250"/><path class="rr-line" d="M186 188V206"/><rect class="rr-term" x="164" y="206" width="44" height="26" rx="13" ry="13"/><text class="rr-label" x="186" y="219">VAL</text><path class="rr-line" d="M186 232V250"/><path class="rr-line" d="M112 268V282"/><circle class="rr-cap" cx="112" cy="282" r="3"/></g><g id="map"><text class="rr-title" x="16" y="331">map</text><circle class="rr-cap" cx="225.75" cy="342" r="3"/><path class="rr-line" d="M225.75 342V356"/><path class="rr-line" d="M225.75 356V374"/><path class="rr-line" d="M153.5 374H298"/><path class="rr-line" d="M153.5 552H298"/><path class="rr-line" d="M225.75 552V570"/><path class="rr-line" d="M153.5 374V392"/><path class="rr-line" d="M153.5 392V410"/><path class="rr-line" d="M42 410H265"/><path class="rr-line" d="M42 516H265"/><path class="rr-line" d="M153.5 516V534"/><path class="rr-line" d="M42 410V428"/><a href="#pair"><rect class="rr-nonterm" x="16" y="428" width="52" height="26" rx="4" ry="4"/><text class="rr-label" x="42" y="441">pair</text></a><path class="rr-line" d="M42 454V516"/><path class="rr-line" d="M120 410V428"/><rect class="rr-term" x="105" y="428" width="30" height="26" rx="13" ry="13"/><text class="rr-label" x="120" y="441">{</text><path class="rr-line" d="M120 454V472"/><a href="#pair"><rect class="rr-nonterm" x="94" y="472" width="52" height="26" rx="4" ry="4"/><text class="rr-label" x="120" y="485">pair</text></a><path class="rr-line" d="M120 498V516"/><path class="rr-line" d="M198 410V428"/><a href="#dive"><rect class="rr-nonterm" x="172" y="428" width="52" height="26" rx="4" ry="4"/><text class="rr-label" x="198" y="441">dive</text></a><path class="rr-line" d="M198 454V516"/><path class="rr-line" d="M265 410V428"/><rect class="rr-term" x="250" y="428" width="30" height="26" rx="13" ry="13"/><text class="rr-label" x="265" y="441">{</text><path class="rr-line" d="M265 454V516"/><path class="rr-line" d="M153.5 534V552"/><path class="rr-line" d="M298 374V392"/><path class="rr-line" d="M298 392V404"/><path class="rr-line" d="M298 404V552"/><path class="rr-line" d="M225.75 570V588"/><rect class="rr-term" x="210.75" y="588" width="30" height="26" rx="13" ry="13"/><text class="rr-label" x="225.75" y="601">}</text><path class="rr-line" d="M225.75 614V628"/><circle class="rr-cap" cx="225.75" cy="628" r="3"/></g><g id="list"><text class="rr-title" x="16" y="677">list</text><circle class="rr-cap" cx="109" cy="688" r="3"/><path class="rr-line" d="M109 688V702"/><path class="rr-line" d="M109 702V720"/><path class="rr-line" d="M42 720H176"/><path class="rr-line" d="M42 826H176"/><path class="rr-line" d="M109 826V844"/><path class="rr-line" d="M42 720V738"/><a href="#elem"><rect class="rr-nonterm" x="16" y="738" width="52" height="26" rx="4" ry="4"/><text class="rr-label" x="42" y="751">elem</text></a><path class="rr-line" d="M42 764V826"/><path class="rr-line" d="M109 720V738"/><rect class="rr-term" x="94" y="738" width="30" height="26" rx="13" ry="13"/><text class="rr-label" x="109" y="751">[</text><path class="rr-line" d="M109 764V826"/><path class="rr-line" d="M176 720V738"/><rect class="rr-term" x="161" y="738" width="30" height="26" rx="13" ry="13"/><text class="rr-label" x="176" y="751">[</text><path class="rr-line" d="M176 764V782"/><a href="#elem"><rect class="rr-nonterm" x="150" y="782" width="52" height="26" rx="4" ry="4"/><text class="rr-label" x="176" y="795">elem</text></a><path class="rr-line" d="M176 808V826"/><path class="rr-line" d="M109 844V862"/><rect class="rr-term" x="94" y="862" width="30" height="26" rx="13" ry="13"/><text class="rr-label" x="109" y="875">]</text><path class="rr-line" d="M109 888V902"/><circle class="rr-cap" cx="109" cy="902" r="3"/></g><g id="pair"><text class="rr-title" x="16" y="951">pair</text><circle class="rr-cap" cx="199" cy="962" r="3"/><path class="rr-line" d="M199 962V976"/><path class="rr-line" d="M199 976V994"/><path class="rr-line" d="M199 994V1012"/><path class="rr-line" d="M96 1012H302"/><path class="rr-line" d="M96 1234H302"/><path class="rr-line" d="M199 1234V1252"/><path class="rr-line" d="M96 1012V1030"/><path class="rr-line" d="M96 1030V1048"/><path class="rr-line" d="M34 1048H158"/><path class="rr-line" d="M34 1110H158"/><path class="rr-line" d="M96 1110V1128"/><path class="rr-line" d="M34 1048V1066"/><rect class="rr-term" x="16" y="1066" width="36" height="26" rx="13" ry="13"/><text class="rr-label" x="34" y="1079">ST</text><path class="rr-line" d="M34 1092V1110"/><path class="rr-line" d="M96 1048V1066"/><rect class="rr-term" x="78" y="1066" width="36" height="26" rx="13" ry="13"/><text class="rr-label" x="96" y="1079">NR</text><path class="rr-line" d="M96 1092V1110"/><path class="rr-line" d="M158 1048V1066"/><rect class="rr-term" x="140" y="1066" width="36" height="26" rx="13" ry="13"/><text class="rr-label" x="158" y="1079">ID</text><path class="rr-line" d="M158 1092V1110"/><path class="rr-line" d="M96 1128V1146"/><rect class="rr-term" x="81" y="1146" width="30" height="26" rx="13" ry="13"/><text class="rr-label" x="96" y="1159">=</text><path class="rr-line" d="M96 1172V1190"/><a href="#val"><rect class="rr-nonterm" x="74" y="1190" width="44" height="26" rx="4" ry="4"/><text class="rr-label" x="96" y="1203">val</text></a><path class="rr-line" d="M96 1216V1234"/><path class="rr-line" d="M228 1012V1030"/><a href="#dive"><rect class="rr-nonterm" x="202" y="1030" width="52" height="26" rx="4" ry="4"/><text class="rr-label" x="228" y="1043">dive</text></a><path class="rr-line" d="M228 1056V1234"/><path class="rr-line" d="M302 1012V1030"/><rect class="rr-term" x="280" y="1030" width="44" height="26" rx="13" ry="13"/><text class="rr-label" x="302" y="1043">KEY</text><path class="rr-line" d="M302 1056V1074"/><rect class="rr-term" x="287" y="1074" width="30" height="26" rx="13" ry="13"/><text class="rr-label" x="302" y="1087">=</text><path class="rr-line" d="M302 1100V1118"/><a href="#val"><rect class="rr-nonterm" x="280" y="1118" width="44" height="26" rx="4" ry="4"/><text class="rr-label" x="302" y="1131">val</text></a><path class="rr-line" d="M302 1144V1234"/><path class="rr-line" d="M199 1252V1270"/><path class="rr-line" d="M199 1261H349"/><path class="rr-line" d="M199 985H349"/><path class="rr-line" d="M349 1136V1261"/><path class="rr-line" d="M349 985V1110"/><rect class="rr-term" x="334" y="1110" width="30" height="26" rx="13" ry="13"/><text class="rr-label" x="349" y="1123">,</text><path class="rr-line" d="M199 1270V1284"/><circle class="rr-cap" cx="199" cy="1284" r="3"/></g><g id="elem"><text class="rr-title" x="422" y="31">elem</text><circle class="rr-cap" cx="444" cy="42" r="3"/><path class="rr-line" d="M444 42V56"/><path class="rr-line" d="M444 56V74"/><a href="#val"><rect class="rr-nonterm" x="422" y="74" width="44" height="26" rx="4" ry="4"/><text class="rr-label" x="444" y="87">val</text></a><path class="rr-line" d="M444 100V118"/><path class="rr-line" d="M444 109H491"/><path class="rr-line" d="M444 65H491"/><path class="rr-line" d="M491 100V109"/><path class="rr-line" d="M491 65V74"/><rect class="rr-term" x="476" y="74" width="30" height="26" rx="13" ry="13"/><text class="rr-label" x="491" y="87">,</text><path class="rr-line" d="M444 118V132"/><circle class="rr-cap" cx="444" cy="132" r="3"/></g><g id="table"><text class="rr-title" x="422" y="181">table</text><circle class="rr-cap" cx="760" cy="192" r="3"/><path class="rr-line" d="M760 192V206"/><path class="rr-line" d="M760 206V224"/><path class="rr-line" d="M760 224V242"/><path class="rr-line" d="M444 242H1076"/><path class="rr-line" d="M444 464H1076"/><path class="rr-line" d="M760 464V482"/><path class="rr-line" d="M444 242V260"/><a href="#map"><rect class="rr-nonterm" x="422" y="260" width="44" height="26" rx="4" ry="4"/><text class="rr-label" x="444" y="273">map</text></a><path class="rr-line" d="M444 286V464"/><path class="rr-line" d="M507 242V260"/><rect class="rr-term" x="492" y="260" width="30" height="26" rx="13" ry="13"/><text class="rr-label" x="507" y="273">[</text><path class="rr-line" d="M507 286V464"/><path class="rr-line" d="M563 242V260"/><rect class="rr-term" x="548" y="260" width="30" height="26" rx="13" ry="13"/><text class="rr-label" x="563" y="273">[</text><path class="rr-line" d="M563 286V304"/><rect class="rr-term" x="548" y="304" width="30" height="26" rx="13" ry="13"/><text class="rr-label" x="563" y="317">[</text><path class="rr-line" d="M563 330V464"/><path class="rr-line" d="M630 242V260"/><a href="#dive"><rect class="rr-nonterm" x="604" y="260" width="52" height="26" rx="4" ry="4"/><text class="rr-label" x="630" y="273">dive</text></a><path class="rr-line" d="M630 286V464"/><path class="rr-line" d="M762 242V260"/><path class="rr-line" d="M762 260V278"/><path class="rr-line" d="M700 278H824"/><path class="rr-line" d="M700 340H824"/><path class="rr-line" d="M762 340V358"/><path class="rr-line" d="M700 278V296"/><rect class="rr-term" x="682" y="296" width="36" height="26" rx="13" ry="13"/><text class="rr-label" x="700" y="309">ST</text><path class="rr-line" d="M700 322V340"/><path class="rr-line" d="M762 278V296"/><rect class="rr-term" x="744" y="296" width="36" height="26" rx="13" ry="13"/><text class="rr-label" x="762" y="309">NR</text><path class="rr-line" d="M762 322V340"/><path class="rr-line" d="M824 278V296"/><rect class="rr-term" x="806" y="296" width="36" height="26" rx="13" ry="13"/><text class="rr-label" x="824" y="309">ID</text><path class="rr-line" d="M824 322V340"/><path class="rr-line" d="M762 358V376"/><rect class="rr-term" x="747" y="376" width="30" height="26" rx="13" ry="13"/><text class="rr-label" x="762" y="389">.</text><path class="rr-line" d="M762 402V464"/><path class="rr-line" d="M948 242V260"/><path class="rr-line" d="M948 260V278"/><path class="rr-line" d="M886 278H1010"/><path class="rr-line" d="M886 340H1010"/><path class="rr-line" d="M948 340V358"/><path class="rr-line" d="M886 278V296"/><rect class="rr-term" x="868" y="296" width="36" height="26" rx="13" ry="13"/><text class="rr-label" x="886" y="309">ST</text><path class="rr-line" d="M886 322V340"/><path class="rr-line" d="M948 278V296"/><rect class="rr-term" x="930" y="296" width="36" height="26" rx="13" ry="13"/><text class="rr-label" x="948" y="309">NR</text><path class="rr-line" d="M948 322V340"/><path class="rr-line" d="M1010 278V296"/><rect class="rr-term" x="992" y="296" width="36" height="26" rx="13" ry="13"/><text class="rr-label" x="1010" y="309">ID</text><path class="rr-line" d="M1010 322V340"/><path class="rr-line" d="M948 358V376"/><rect class="rr-term" x="933" y="376" width="30" height="26" rx="13" ry="13"/><text class="rr-label" x="948" y="389">]</text><path class="rr-line" d="M948 402V420"/><path class="rr-line" d="M948 420V446"/><text class="rr-comment" x="948" y="433">dynamic</text><path class="rr-line" d="M948 446V464"/><path class="rr-line" d="M1076 242V260"/><rect class="rr-term" x="1061" y="260" width="30" height="26" rx="13" ry="13"/><text class="rr-label" x="1076" y="273">]</text><path class="rr-line" d="M1076 286V304"/><a href="#map"><rect class="rr-nonterm" x="1054" y="304" width="44" height="26" rx="4" ry="4"/><text class="rr-label" x="1076" y="317">map</text></a><path class="rr-line" d="M1076 330V464"/><path class="rr-line" d="M760 482V500"/><path class="rr-line" d="M760 491H1123"/><path class="rr-line" d="M760 215H1123"/><path class="rr-line" d="M1123 366V491"/><path class="rr-line" d="M1123 215V340"/><rect class="rr-term" x="1108" y="340" width="30" height="26" rx="13" ry="13"/><text class="rr-label" x="1123" y="353">[</text><path class="rr-line" d="M760 500V514"/><circle class="rr-cap" cx="760" cy="514" r="3"/></g><g id="dive"><text class="rr-title" x="422" y="563">dive</text><circle class="rr-cap" cx="502" cy="574" r="3"/><path class="rr-line" d="M502 574V588"/><path class="rr-line" d="M502 588V606"/><path class="rr-line" d="M502 606V624"/><path class="rr-line" d="M440 624H564"/><path class="rr-line" d="M440 686H564"/><path class="rr-line" d="M502 686V704"/><path class="rr-line" d="M440 624V642"/><rect class="rr-term" x="422" y="642" width="36" height="26" rx="13" ry="13"/><text class="rr-label" x="440" y="655">ST</text><path class="rr-line" d="M440 668V686"/><path class="rr-line" d="M502 624V642"/><rect class="rr-term" x="484" y="642" width="36" height="26" rx="13" ry="13"/><text class="rr-label" x="502" y="655">NR</text><path class="rr-line" d="M502 668V686"/><path class="rr-line" d="M564 624V642"/><rect class="rr-term" x="546" y="642" width="36" height="26" rx="13" ry="13"/><text class="rr-label" x="564" y="655">ID</text><path class="rr-line" d="M564 668V686"/><path class="rr-line" d="M502 704V722"/><path class="rr-line" d="M502 722V740"/><path class="rr-line" d="M465 740H539"/><path class="rr-line" d="M465 846H539"/><path class="rr-line" d="M502 846V864"/><path class="rr-line" d="M465 740V758"/><rect class="rr-term" x="450" y="758" width="30" height="26" rx="13" ry="13"/><text class="rr-label" x="465" y="771">.</text><path class="rr-line" d="M465 784V802"/><a href="#dive"><rect class="rr-nonterm" x="439" y="802" width="52" height="26" rx="4" ry="4"/><text class="rr-label" x="465" y="815">dive</text></a><path class="rr-line" d="M465 828V846"/><path class="rr-line" d="M539 740V758"/><rect class="rr-term" x="524" y="758" width="30" height="26" rx="13" ry="13"/><text class="rr-label" x="539" y="771">=</text><path class="rr-line" d="M539 784V802"/><a href="#val"><rect class="rr-nonterm" x="517" y="802" width="44" height="26" rx="4" ry="4"/><text class="rr-label" x="539" y="815">val</text></a><path class="rr-line" d="M539 828V846"/><path class="rr-line" d="M502 864V882"/><path class="rr-line" d="M502 873H592"/><path class="rr-line" d="M502 597H592"/><path class="rr-line" d="M592 597V873"/><path class="rr-line" d="M502 882V896"/><circle class="rr-cap" cx="502" cy="896" r="3"/></g><text class="rr-title" x="16" y="1333">Tokens</text><text class="rr-legend" x="16" y="1355"><tspan class="rr-legend-tok">ID</tspan>  —  bare key: letters, digits, _ or -</text><text class="rr-legend" x="16" y="1373"><tspan class="rr-legend-tok">KEY</tspan>  —  map key: bare text, number, string, or keyword</text><text class="rr-legend" x="16" y="1391"><tspan class="rr-legend-tok">NR</tspan>  —  number literal (e.g. 42, -1.5, 1e3)</text><text class="rr-legend" x="16" y="1409"><tspan class="rr-legend-tok">ST</tspan>  —  quoted string (e.g. &quot;text&quot;)</text><text class="rr-legend" x="16" y="1427"><tspan class="rr-legend-tok">VAL</tspan>  —  value: bare text, number, string, or keyword</text><text class="rr-title" x="16" y="1483">Ignored tokens</text><text class="rr-legend" x="16" y="1505"><tspan class="rr-legend-tok">CM</tspan>  —  comment</text><text class="rr-legend" x="16" y="1523"><tspan class="rr-legend-tok">LN</tspan>  —  newline (line break)</text><text class="rr-legend" x="16" y="1541"><tspan class="rr-legend-tok">SP</tspan>  —  whitespace (spaces or tabs)</text></g></svg>